<svg width="64" height="64" viewBox="0 0 64 64" fill="none" xmlns="http://www.w3.org/2000/svg">
<path d="M0 8C0 3.58172 3.58172 0 8 0H56C60.4183 0 64 3.58172 64 8V56C64 60.4183 60.4183 64 56 64H8C3.58172 64 0 60.4183 0 56V8Z" fill="#DDA15E"/>
<path d="M9.41421 35.0416C8.63316 34.2606 8.63316 32.9942 9.41421 32.2132C10.1953 31.4321 11.4616 31.4321 12.2426 32.2132L20.7279 40.6985C21.509 41.4795 21.509 42.7458 20.7279 43.5269C19.9469 44.3079 18.6805 44.3079 17.8995 43.5269L9.41421 35.0416Z" fill="#FEFAE0"/>
<path d="M17.8995 43.5269C17.1184 42.7458 17.1184 41.4795 17.8995 40.6985L37.6985 20.8995C38.4795 20.1184 39.7459 20.1184 40.5269 20.8995C41.308 21.6805 41.308 22.9468 40.5269 23.7279L20.7279 43.5269C19.9469 44.3079 18.6805 44.3079 17.8995 43.5269Z" fill="#FEFAE0"/>
<path d="M31.2426 43.2842C30.4616 42.5032 30.4616 41.2368 31.2426 40.4558L52.4558 19.2426C53.2369 18.4615 54.5032 18.4615 55.2843 19.2426C56.0653 20.0236 56.0653 21.29 55.2843 22.071L34.0711 43.2842C33.29 44.0653 32.0237 44.0653 31.2426 43.2842Z" fill="#FEFAE0"/>
<path d="M27 39.0416L29.8284 36.2132L35.4853 41.87L34.0711 43.2842C33.29 44.0653 32.0237 44.0653 31.2426 43.2842L27 39.0416Z" fill="#FEFAE0"/>
</svg>
