<svg xmlns="http://www.w3.org/2000/svg">
  <symbol id="plus" viewBox="0 0 24 24">
    <path d="M11 5C11 4.44772 11.4477 4 12 4C12.5523 4 13 4.44772 13 5V19C13 19.5523 12.5523 20 12 20C11.4477 20 11 19.5523 11 19V5Z"/>
    <path d="M19 11C19.5523 11 20 11.4477 20 12C20 12.5523 19.5523 13 19 13L5 13C4.44772 13 4 12.5523 4 12C4 11.4477 4.44772 11 5 11L19 11Z"/>
  </symbol>
  <symbol id="one-mark" viewBox="0 0 33 24">
    <path d="M0.585786 14.7279C-0.195262 13.9469 -0.195262 12.6805 0.585786 11.8995C1.36683 11.1184 2.63316 11.1184 3.41421 11.8995L13.3137 21.799L11.8995 23.2132C11.1184 23.9943 9.85212 23.9943 9.07107 23.2132L0.585786 14.7279Z" />
    <path d="M7.65685 21.799L28.8701 0.585786C29.6511 -0.195262 30.9174 -0.195262 31.6985 0.585786C32.4795 1.36683 32.4795 2.63316 31.6985 3.41421L11.8995 23.2132C11.1184 23.9943 9.85212 23.9943 9.07107 23.2132L7.65685 21.799Z"/>
  </symbol>
  <symbol id="second-mark" viewBox="0 0 29 26">
    <path d="M4.24264 24.6274C3.46159 23.8464 3.46159 22.58 4.24264 21.799L25.4558 0.585786C26.2369 -0.195262 27.5032 -0.195262 28.2843 0.585786C29.0653 1.36683 29.0653 2.63317 28.2843 3.41421L7.07107 24.6274C6.29002 25.4085 5.02369 25.4085 4.24264 24.6274Z"/>
    <path d="M0 20.3848L2.82843 17.5563L8.48528 23.2132L7.07107 24.6274C6.29002 25.4085 5.02369 25.4085 4.24264 24.6274L0 20.3848Z"/>
  </symbol>
  <symbol id="trash" viewBox="0 0 640 640">
    <path d="M232.7 69.9C237.1 56.8 249.3 48 263.1 48H377C390.8 48 403 56.8 407.4 69.9L416 96H512C529.7 96 544 110.3 544 128C544 145.7 529.7 160 512 160H128C110.3 160 96 145.7 96 128C96 110.3 110.3 96 128 96H224L232.7 69.9ZM128 208H512V512C512 547.3 483.3 576 448 576H192C156.7 576 128 547.3 128 512V208ZM216 272C202.7 272 192 282.7 192 296V488C192 501.3 202.7 512 216 512C229.3 512 240 501.3 240 488V296C240 282.7 229.3 272 216 272ZM320 272C306.7 272 296 282.7 296 296V488C296 501.3 306.7 512 320 512C333.3 512 344 501.3 344 488V296C344 282.7 333.3 272 320 272ZM424 272C410.7 272 400 282.7 400 296V488C400 501.3 410.7 512 424 512C437.3 512 448 501.3 448 488V296C448 282.7 437.3 272 424 272Z"/>
  </symbol>
  <symbol id="moon" viewBox="0 0 640 640">
    <path d="M303.3 112.7C196.2 121.2 112 210.8 112 320C112 434.9 205.1 528 320 528C353.3 528 384.7 520.2 412.6 506.3C309.2 482.9 232 390.5 232 280C232 214.2 259.4 154.9 303.3 112.7zM64 320C64 178.6 178.6 64 320 64C339.4 64 358.4 66.2 376.7 70.3C386.6 72.5 394 80.8 395.2 90.8C396.4 100.8 391.2 110.6 382.1 115.2C321.5 145.4 280 207.9 280 280C280 381.6 362.4 464 464 464C469 464 473.9 463.8 478.8 463.4C488.9 462.6 498.4 468.2 502.6 477.5C506.8 486.8 504.6 497.6 497.3 504.6C451.3 548.8 388.8 576 320 576C178.6 576 64 461.4 64 320z"/>
  </symbol>
</svg>